<svg xmlns="http://www.w3.org/2000/svg" width="20" height="20" fill="none"><g clip-path="url(#a)"><path fill="#575445" d="M18.68 7.546 15.203.684c-.477-.89-1.227-.89-1.704-.127-.478.89-.478 2.287-.069 3.177l1.978 3.94H1.228C.544 7.673 0 8.69 0 9.96c0 1.27.545 2.287 1.227 2.287h14.249l-1.977 3.94c-.478.89-.41 2.287.068 3.177.204.38.545.635.818.635.34 0 .613-.254.886-.635l3.477-6.863c.614-1.525.614-3.558-.068-4.956Z"/></g><defs><clipPath id="a"><path fill="#fff" d="M0 0h20v20H0z"/></clipPath></defs></svg>