<svg xmlns="http://www.w3.org/2000/svg" width="78" height="40" fill="none"><path fill="#353732" fill-rule="evenodd" d="M19.89 0c10.987 0 19.89 8.961 19.89 20.006C39.78 31.05 30.877 40 19.89 40S0 31.05 0 20.006C0 8.96 8.903 0 19.89 0Zm.423 12.21c-4.468 0-8.045 3.573-8.045 8.12 0 4.515 3.577 8.088 8.045 8.088a7.617 7.617 0 0 0 5.46-2.274c.156-.157.156-.314 0-.47l-1.482-1.591c-.133-.157-.312-.157-.468-.022-.936.828-2.094 1.344-3.532 1.344-2.73 0-4.87-2.173-4.87-5.075 0-2.923 2.14-5.107 4.87-5.107 1.438 0 2.596.515 3.532 1.355.156.134.335.134.468-.022l1.482-1.602c.156-.157.156-.314 0-.47-1.392-1.39-3.287-2.274-5.46-2.274Zm29.943 2.683c1.532 0 2.874.588 3.853 1.523.11.106.11.21 0 .317l-1.042 1.07c-.095.105-.22.105-.331.015a3.768 3.768 0 0 0-2.496-.905c-1.926 0-3.442 1.463-3.442 3.422 0 1.946 1.516 3.408 3.442 3.408 1.01 0 1.832-.347 2.495-.905.111-.09.237-.09.332.015l1.042 1.07c.11.106.11.212 0 .317a5.526 5.526 0 0 1-3.853 1.523c-3.158 0-5.685-2.397-5.685-5.428 0-3.045 2.527-5.442 5.685-5.442Zm7.39 3.136c1.043 0 1.816.452 2.354 1.13l.078-.753c.016-.135.095-.226.237-.226h1.374c.142 0 .236.09.236.226v6.935c0 .135-.094.226-.236.226h-1.374c-.142 0-.22-.09-.237-.226l-.095-.724c-.505.619-1.279 1.056-2.337 1.056-2.178 0-3.758-1.674-3.758-3.785 0-2.155 1.58-3.86 3.758-3.86Zm6.916-3.467c.143 0 .237.09.237.226V25.34c0 .136-.094.226-.237.226h-1.61c-.143 0-.237-.09-.237-.226V14.788c0-.136.094-.226.236-.226h1.611Zm10.533 3.452c1.69 0 2.905 1.146 2.905 3.12v4.207c0 .136-.094.226-.237.226h-1.61c-.143 0-.237-.09-.237-.226v-3.844c0-1.222-.695-1.644-1.438-1.644-1.168 0-1.705.89-1.705 1.417v4.071c0 .136-.094.226-.236.226h-1.611c-.142 0-.237-.09-.237-.226v-3.844c0-1.222-.695-1.644-1.453-1.644-1.168 0-1.705 1.1-1.705 1.448v4.04c0 .136-.095.226-.237.226h-1.61c-.143 0-.237-.09-.237-.226v-6.935c0-.136.094-.226.237-.226h1.546c.143 0 .222.09.238.226l.063.964v.016c.505-.784 1.327-1.372 2.448-1.372 1.026 0 1.894.483 2.384 1.372.552-.8 1.468-1.372 2.732-1.372Zm-17.212 1.824c-1.153 0-1.99.845-1.99 2.035 0 1.146.837 1.99 1.99 1.99 1.17 0 1.974-.859 1.974-1.99 0-1.115-.805-2.035-1.974-2.035Z" clip-rule="evenodd"/></svg>